ffmpeg started on 2016-11-26 at 11:29:33
Report written to "Output/NVENCh264/results/ffmpeg/crowd_run_2160p50ll3000k.log"
Command line:
Tools/ffmpeg/ffmpeg -benchmark -y -i Input/y4m/crowd_run_2160p50.y4m -c:v h264_nvenc -preset ll -b:v 3000k -an Output/NVENCh264/encoded/crowd_run_2160p50ll3000k.mkv
ffmpeg version N-82227-gdb23fde Copyright (c) 2000-2016 the FFmpeg developers
  built with gcc 5.4.0 (Ubuntu 5.4.0-6ubuntu1~16.04.2) 20160609
  configuration: --prefix=/home/jaroslav/ffmpeg_build --pkg-config-flags=--static --extra-cflags=-I/home/jaroslav/ffmpeg_build/include --extra-ldflags=-L/home/jaroslav/ffmpeg_build/lib --bindir=/home/jaroslav/bin --enable-gpl --enable-libass --enable-libfdk-aac --enable-libfreetype --enable-libmp3lame --enable-libopus --enable-libtheora --enable-libvorbis --enable-libvpx --enable-libx264 --enable-libx265 --enable-nvenc --enable-libmfx --enable-libxvid --enable-libgsm --enable-libopencore-amrnb --enable-version3 --enable-nonfree
  libavutil      55. 35.100 / 55. 35.100
  libavcodec     57. 66.101 / 57. 66.101
  libavformat    57. 57.100 / 57. 57.100
  libavdevice    57.  2.100 / 57.  2.100
  libavfilter     6. 66.100 /  6. 66.100
  libswscale      4.  3.100 /  4.  3.100
  libswresample   2.  4.100 /  2.  4.100
  libpostproc    54.  2.100 / 54.  2.100
Input #0, yuv4mpegpipe, from 'Input/y4m/crowd_run_2160p50.y4m':
  Duration: 00:00:10.00, start: 0.000000, bitrate: 4976642 kb/s
    Stream #0:0: Video: rawvideo (I420 / 0x30323449), yuv420p(progressive), 3840x2160, SAR 1:1 DAR 16:9, 50 fps, 50 tbr, 50 tbn, 50 tbc
[h264_nvenc @ 0x41ec1c0] The variable bitrate rate-control requires the 'qmin' and/or 'qmax' option set.
Output #0, matroska, to 'Output/NVENCh264/encoded/crowd_run_2160p50ll3000k.mkv':
  Metadata:
    encoder         : Lavf57.57.100
    Stream #0:0: Video: h264 (h264_nvenc) (Main) (H264 / 0x34363248), yuv420p, 3840x2160 [SAR 1:1 DAR 16:9], q=-1--1, 3000 kb/s, 50 fps, 1k tbn, 50 tbc
    Metadata:
      encoder         : Lavc57.66.101 h264_nvenc
    Side data:
      cpb: bitrate max/min/avg: 0/0/3000000 buffer size: 6000000 vbv_delay: -1
Stream mapping:
  Stream #0:0 -> #0:0 (rawvideo (native) -> h264 (h264_nvenc))
Press [q] to stop, [?] for help
frame=   13 fps=0.0 q=0.0 size=       0kB time=00:00:00.00 bitrate=N/A speed=   0x    frame=   14 fps=9.7 q=0.0 size=       0kB time=00:00:00.00 bitrate=N/A speed=   0x    frame=   16 fps=6.6 q=0.0 size=       0kB time=00:00:00.00 bitrate=N/A speed=   0x    frame=   17 fps=5.1 q=0.0 size=       0kB time=00:00:00.00 bitrate=N/A speed=   0x    frame=   20 fps=2.9 q=0.0 size=       0kB time=00:00:00.00 bitrate=N/A speed=   0x    frame=   21 fps=2.0 q=0.0 size=       0kB time=00:00:00.00 bitrate=N/A speed=   0x    frame=   36 fps=3.3 q=49.0 size=       1kB time=00:00:00.10 bitrate=  59.2kbits/s speed=0.00925x    frame=   42 fps=3.7 q=49.0 size=       1kB time=00:00:00.22 bitrate=  27.0kbits/s speed=0.0193x    frame=   57 fps=4.7 q=49.0 size=       1kB time=00:00:00.52 bitrate=  11.5kbits/s speed=0.0427x    frame=   63 fps=4.9 q=49.0 size=       1kB time=00:00:00.64 bitrate=   9.3kbits/s speed=0.0504x    frame=   81 fps=6.1 q=49.0 size=       1kB time=00:00:01.00 bitrate=   6.0kbits/s speed=0.0755x    frame=   87 fps=6.3 q=49.0 size=       1kB time=00:00:01.12 bitrate=   5.3kbits/s speed=0.0808x    frame=   89 fps=6.1 q=49.0 size=       1kB time=00:00:01.16 bitrate=   5.1kbits/s speed=0.0802x    frame=   95 fps=6.3 q=49.0 size=       1kB time=00:00:01.28 bitrate=   4.7kbits/s speed=0.0854x    frame=  101 fps=6.5 q=49.0 size=       1kB time=00:00:01.40 bitrate=   4.3kbits/s speed=0.0903x    frame=  106 fps=6.6 q=49.0 size=       1kB time=00:00:01.50 bitrate=   4.0kbits/s speed=0.0936x    frame=  119 fps=7.1 q=49.0 size=       1kB time=00:00:01.76 bitrate=   3.4kbits/s speed=0.105x    frame=  125 fps=7.2 q=49.0 size=       1kB time=00:00:01.88 bitrate=   3.2kbits/s speed=0.109x    frame=  131 fps=7.4 q=49.0 size=       1kB time=00:00:02.00 bitrate=   3.0kbits/s speed=0.113x    frame=  137 fps=7.5 q=49.0 size=       1kB time=00:00:02.12 bitrate=   2.8kbits/s speed=0.116x    frame=  140 fps=7.3 q=49.0 size=       1kB time=00:00:02.18 bitrate=   2.7kbits/s speed=0.114x    frame=  147 fps=7.4 q=49.0 size=       1kB time=00:00:02.32 bitrate=   2.6kbits/s speed=0.116x    frame=  149 fps=7.3 q=49.0 size=       1kB time=00:00:02.36 bitrate=   2.5kbits/s speed=0.115x    frame=  151 fps=7.2 q=49.0 size=       1kB time=00:00:02.40 bitrate=   2.5kbits/s speed=0.114x    frame=  156 fps=7.2 q=49.0 size=       1kB time=00:00:02.50 bitrate=   2.4kbits/s speed=0.116x    frame=  173 fps=7.8 q=49.0 size=       1kB time=00:00:02.84 bitrate=   2.1kbits/s speed=0.129x    frame=  179 fps=7.9 q=49.0 size=       1kB time=00:00:02.96 bitrate=   2.0kbits/s speed=0.131x    frame=  184 fps=7.9 q=49.0 size=       1kB time=00:00:03.06 bitrate=   2.0kbits/s speed=0.132x    frame=  189 fps=7.9 q=49.0 size=       1kB time=00:00:03.16 bitrate=   1.9kbits/s speed=0.133x    frame=  198 fps=8.1 q=49.0 size=       1kB time=00:00:03.34 bitrate=   1.8kbits/s speed=0.137x    frame=  203 fps=8.2 q=49.0 size=       1kB time=00:00:03.44 bitrate=   1.7kbits/s speed=0.139x    frame=  204 fps=7.9 q=49.0 size=       1kB time=00:00:03.46 bitrate=   1.7kbits/s speed=0.135x    frame=  209 fps=7.9 q=49.0 size=       1kB time=00:00:03.56 bitrate=   1.7kbits/s speed=0.134x    frame=  211 fps=7.8 q=49.0 size=       1kB time=00:00:03.60 bitrate=   1.7kbits/s speed=0.133x    frame=  213 fps=7.7 q=49.0 size=       1kB time=00:00:03.64 bitrate=   1.6kbits/s speed=0.132x    frame=  215 fps=7.6 q=49.0 size=       1kB time=00:00:03.68 bitrate=   1.6kbits/s speed=0.131x    frame=  218 fps=7.6 q=49.0 size=       1kB time=00:00:03.74 bitrate=   1.6kbits/s speed=0.13x    frame=  220 fps=7.4 q=49.0 size=       1kB time=00:00:03.78 bitrate=   1.6kbits/s speed=0.127x    frame=  223 fps=7.4 q=49.0 size=       1kB time=00:00:03.84 bitrate=   1.6kbits/s speed=0.127x    frame=  225 fps=7.3 q=49.0 size=       1kB time=00:00:03.88 bitrate=   1.5kbits/s speed=0.126x    frame=  227 fps=7.2 q=49.0 size=       1kB time=00:00:03.92 bitrate=   1.5kbits/s speed=0.124x    frame=  230 fps=7.0 q=49.0 size=       1kB time=00:00:03.98 bitrate=   1.5kbits/s speed=0.121x    frame=  231 fps=6.9 q=49.0 size=       1kB time=00:00:04.00 bitrate=   1.5kbits/s speed=0.12x    frame=  232 fps=6.8 q=49.0 size=       1kB time=00:00:04.02 bitrate=   1.5kbits/s speed=0.117x    frame=  234 fps=6.7 q=49.0 size=       1kB time=00:00:04.06 bitrate=   1.5kbits/s speed=0.117x    frame=  235 fps=6.6 q=49.0 size=       1kB time=00:00:04.08 bitrate=   1.5kbits/s speed=0.115x    frame=  237 fps=6.5 q=49.0 size=       1kB time=00:00:04.12 bitrate=   1.5kbits/s speed=0.114x    frame=  240 fps=6.5 q=49.0 size=       1kB time=00:00:04.18 bitrate=   1.4kbits/s speed=0.113x    frame=  243 fps=6.4 q=49.0 size=       1kB time=00:00:04.24 bitrate=   1.4kbits/s speed=0.112x    frame=  245 fps=6.3 q=49.0 size=       1kB time=00:00:04.28 bitrate=   1.4kbits/s speed=0.111x    frame=  247 fps=6.2 q=49.0 size=       1kB time=00:00:04.32 bitrate=   1.4kbits/s speed=0.109x    frame=  249 fps=6.1 q=49.0 size=       1kB time=00:00:04.36 bitrate=   1.4kbits/s speed=0.108x    frame=  250 fps=6.1 q=49.0 size=       1kB time=00:00:04.38 bitrate=   1.4kbits/s speed=0.107x    frame=  251 fps=6.0 q=49.0 size=       1kB time=00:00:04.40 bitrate=   1.4kbits/s speed=0.106x    frame=  253 fps=5.9 q=49.0 size=       1kB time=00:00:04.44 bitrate=   1.3kbits/s speed=0.104x    frame=  254 fps=5.9 q=49.0 size=       1kB time=00:00:04.46 bitrate=   1.3kbits/s speed=0.103x    frame=  257 fps=5.9 q=49.0 size=       1kB time=00:00:04.52 bitrate=   1.3kbits/s speed=0.103x    frame=  259 fps=5.8 q=49.0 size=       1kB time=00:00:04.56 bitrate=   1.3kbits/s speed=0.102x    frame=  261 fps=5.7 q=49.0 size=       1kB time=00:00:04.60 bitrate=   1.3kbits/s speed=0.101x    frame=  265 fps=5.7 q=49.0 size=       1kB time=00:00:04.68 bitrate=   1.3kbits/s speed=0.101x    frame=  268 fps=5.7 q=49.0 size=       1kB time=00:00:04.74 bitrate=   1.3kbits/s speed= 0.1x    frame=  271 fps=5.6 q=49.0 size=       1kB time=00:00:04.80 bitrate=   1.2kbits/s speed= 0.1x    frame=  275 fps=5.7 q=49.0 size=       1kB time=00:00:04.88 bitrate=   1.2kbits/s speed=0.101x    frame=  277 fps=5.6 q=49.0 size=       1kB time=00:00:04.92 bitrate=   1.2kbits/s speed=0.0999x    frame=  282 fps=5.7 q=49.0 size=    3088kB time=00:00:05.02 bitrate=5037.9kbits/s speed=0.101x    frame=  295 fps=5.8 q=49.0 size=    3088kB time=00:00:05.28 bitrate=4789.9kbits/s speed=0.105x    frame=  313 fps=6.1 q=49.0 size=    3088kB time=00:00:05.64 bitrate=4484.2kbits/s speed=0.111x    frame=  331 fps=6.4 q=49.0 size=    3088kB time=00:00:06.00 bitrate=4215.2kbits/s speed=0.116x    frame=  349 fps=6.7 q=49.0 size=    3088kB time=00:00:06.36 bitrate=3976.6kbits/s speed=0.122x    frame=  367 fps=7.0 q=49.0 size=    3088kB time=00:00:06.72 bitrate=3763.6kbits/s speed=0.128x    frame=  385 fps=7.2 q=49.0 size=    3088kB time=00:00:07.08 bitrate=3572.3kbits/s speed=0.133x    frame=  403 fps=7.5 q=49.0 size=    3088kB time=00:00:07.44 bitrate=3399.5kbits/s speed=0.139x    frame=  410 fps=7.6 q=49.0 size=    3088kB time=00:00:07.58 bitrate=3336.7kbits/s speed=0.14x    frame=  428 fps=7.8 q=49.0 size=    3088kB time=00:00:07.94 bitrate=3185.4kbits/s speed=0.145x    frame=  446 fps=8.1 q=49.0 size=    3088kB time=00:00:08.30 bitrate=3047.3kbits/s speed=0.15x    frame=  464 fps=8.3 q=49.0 size=    3088kB time=00:00:08.66 bitrate=2920.6kbits/s speed=0.156x    frame=  482 fps=8.6 q=49.0 size=    3088kB time=00:00:09.02 bitrate=2804.1kbits/s speed=0.16x    frame=  497 fps=8.7 q=49.0 size=    3088kB time=00:00:09.32 bitrate=2713.8kbits/s speed=0.164x    frame=  500 fps=8.8 q=49.0 Lsize=    6327kB time=00:00:09.98 bitrate=5192.8kbits/s speed=0.175x    
video:6323kB audio:0kB subtitle:0kB other streams:0kB global headers:0kB muxing overhead: 0.067220%
bench: utime=1.272s
bench: maxrss=1396968kB
